<svg width="40" height="40" viewBox="0 0 40 40" fill="none" xmlns="http://www.w3.org/2000/svg">
<path d="M20 3.60058C25.3385 3.60058 25.9722 3.61978 28.0749 3.71579C30.024 3.80221 31.0802 4.12866 31.7907 4.40711C32.722 4.77196 33.3941 5.20403 34.0855 5.90494C34.7864 6.60586 35.2184 7.26836 35.5833 8.19971C35.8617 8.90062 36.1786 9.96639 36.2746 11.9155C36.3706 14.0278 36.3898 14.6519 36.3898 19.9904C36.3898 25.3289 36.3706 25.9626 36.2746 28.0653C36.1882 30.0144 35.8617 31.0706 35.5833 31.7811C35.2184 32.7124 34.7864 33.3845 34.0855 34.0759C33.3845 34.7672 32.722 35.2088 31.7907 35.5737C31.0898 35.8521 30.024 36.169 28.0749 36.265C25.9626 36.361 25.3385 36.3802 20 36.3802C14.6615 36.3802 14.0278 36.361 11.9251 36.265C9.976 36.1786 8.91983 35.8521 8.20931 35.5737C7.27796 35.2088 6.60586 34.7768 5.91455 34.0759C5.21363 33.3749 4.78157 32.7124 4.41671 31.7811C4.13826 31.0802 3.82141 30.0144 3.7254 28.0653C3.62938 25.953 3.61018 25.3289 3.61018 19.9904C3.61018 14.6519 3.62938 14.0182 3.7254 11.9155C3.81181 9.96639 4.13826 8.91023 4.41671 8.19971C4.78157 7.26836 5.21363 6.59626 5.91455 5.90494C6.61546 5.21363 7.27796 4.77196 8.20931 4.40711C8.91023 4.12866 9.976 3.81181 11.9251 3.71579C14.0374 3.61978 14.6615 3.60058 20 3.60058ZM20 0C14.5655 0 13.8934 0.0192031 11.7523 0.12482C9.62074 0.220835 8.17091 0.556889 6.9035 1.05617C5.58809 1.56505 4.47432 2.24676 3.36054 3.36054C2.24676 4.47432 1.56505 5.58809 1.05617 6.9035C0.566491 8.17091 0.220835 9.63034 0.12482 11.7523C0.0288046 13.8838 0 14.5655 0 20C0 25.4345 0.0192031 26.1066 0.12482 28.2477C0.220835 30.3793 0.556889 31.8291 1.05617 33.0965C1.56505 34.4119 2.24676 35.5257 3.36054 36.6395C4.47432 37.7532 5.58809 38.435 6.9035 38.9438C8.17091 39.4335 9.63034 39.7792 11.7523 39.8752C13.8838 39.9712 14.5655 40 20 40C25.4345 40 26.1066 39.9808 28.2477 39.8752C30.3793 39.7792 31.8291 39.4431 33.0965 38.9438C34.4119 38.435 35.5257 37.7532 36.6395 36.6395C37.7532 35.5257 38.4349 34.4119 38.9438 33.0965C39.4335 31.8291 39.7792 30.3697 39.8752 28.2477C39.9712 26.1162 40 25.4345 40 20C40 14.5655 39.9808 13.8934 39.8752 11.7523C39.7792 9.62074 39.4431 8.17091 38.9438 6.9035C38.4349 5.58809 37.7532 4.47432 36.6395 3.36054C35.5257 2.24676 34.4119 1.56505 33.0965 1.05617C31.8291 0.566491 30.3697 0.220835 28.2477 0.12482C26.1162 0.0288046 25.4345 0 20 0Z" fill="#F0F3F5"/>
<path d="M20.0004 9.72656C14.3259 9.72656 9.73633 14.3257 9.73633 19.9906C9.73633 25.6555 14.3355 30.2546 20.0004 30.2546C25.6653 30.2546 30.2644 25.6555 30.2644 19.9906C30.2644 14.3257 25.6653 9.72656 20.0004 9.72656ZM20.0004 26.6637C16.323 26.6637 13.3369 23.6776 13.3369 20.0002C13.3369 16.3228 16.323 13.3367 20.0004 13.3367C23.6778 13.3367 26.6638 16.3228 26.6638 20.0002C26.6638 23.6776 23.6778 26.6637 20.0004 26.6637Z" fill="#F0F3F5"/>
<path d="M30.6768 11.7226C32.0024 11.7226 33.0771 10.648 33.0771 9.32226C33.0771 7.99656 32.0024 6.92188 30.6768 6.92188C29.3511 6.92188 28.2764 7.99656 28.2764 9.32226C28.2764 10.648 29.3511 11.7226 30.6768 11.7226Z" fill="#F0F3F5"/>
</svg>
