<svg width="44" height="44" viewBox="0 0 44 44" fill="none" xmlns="http://www.w3.org/2000/svg">
<path d="M40.7366 36.7604L38.1473 39.3504C35.7199 41.7785 31.547 42.5879 26.7038 41.5704C21.3981 40.4604 15.9422 37.3038 11.3185 32.6904L11.307 32.6672C6.69484 28.0422 3.53919 22.5732 2.42951 17.2775C1.41231 12.4329 2.22145 8.25879 4.64887 5.83066L7.23813 3.24066C8.10506 2.37347 8.99512 1.95722 9.87361 2.00347C10.7868 2.04972 11.7115 2.60472 12.5322 3.5991L16.1618 8.80222C17.6529 11.0569 16.601 12.1091 16.2543 12.4675L14.1621 14.5604C12.8906 15.8322 13.6419 17.6244 14.0118 18.48L14.1043 18.7113C14.6244 19.96 15.5029 22.0529 18.7742 25.2441C21.9529 28.5163 24.0451 29.395 25.3051 29.9154L25.5363 30.0079C26.3917 30.3779 28.1833 31.1294 29.4548 29.8575L31.547 27.7647C31.8938 27.4179 32.9573 26.3541 35.1882 27.8457L40.4014 31.4879C41.3955 32.3204 41.9503 33.2338 41.9965 34.1472C42.0428 35.026 41.6266 35.9163 40.7597 36.7835L40.7366 36.7604Z" stroke="#8E908C" stroke-width="3" stroke-linecap="round" stroke-linejoin="round"/>
</svg>
